<?xml version="1.0" encoding="utf-8"?>
<!-- Generator: Adobe Illustrator 24.2.0, SVG Export Plug-In . SVG Version: 6.00 Build 0)  -->
<svg version="1.1" id="Layer_1" xmlns="http://www.w3.org/2000/svg" xmlns:xlink="http://www.w3.org/1999/xlink" x="0px" y="0px"
	 viewBox="0 0 48 48" style="enable-background:new 0 0 48 48;" xml:space="preserve">
<style type="text/css">
	.st0{fill:#FFFFFF;}
</style>
<path class="st0" d="M0,24c0,13.3,10.7,24,24,24c13.2,0,24-10.7,24-24C48,10.7,37.2,0,24,0C10.7,0,0,10.7,0,24z M16.9,22.2
	l11.4-11.5c0.8-0.8,2-0.8,2.7,0c0.8,0.7,0.8,2,0,2.7L21,23.6l10.1,11.1c0.7,0.8,0.7,2-0.1,2.7c-0.4,0.3-0.9,0.5-1.3,0.5
	c-0.5,0-1-0.2-1.4-0.6L16.9,24.9C16.2,24.1,16.2,22.9,16.9,22.2z"/>
</svg>
